PathFileType	4	(X/Y/Z)	C:/Users/opensim2020/Desktop/walking_exp_matlab/subject06_walking22_straight_02.trc	
DataRate	CameraRate	NumFrames	NumMarkers	Units	OrigDataRate	OrigDataStartFrame	OrigNumFrames	
100.00	100.00	6	44	mm	100.00	1269	81	
Frame#	Time	LFHD			RFHD			LBHD			RBHD			C7			T10			CLAV			STRN			RBAK			LSHO			LUPA			LELB			LFRM			LWRA			LWRB			LFIN			RSHO			RUPA			RELB			RFRM			RWRA			RWRB			RFIN			LASI			RASI			LPSI			RPSI			LTHI			LKNE			LTIB			LANK			LHEE			LTOE			RTHI			RKNE			RTIB			RANK			RHEE			RTOE			*39			*40			*41			*42			*43			
		X1	Y1	Z1	X2	Y2	Z2	X3	Y3	Z3	X4	Y4	Z4	X5	Y5	Z5	X6	Y6	Z6	X7	Y7	Z7	X8	Y8	Z8	X9	Y9	Z9	X10	Y10	Z10	X11	Y11	Z11	X12	Y12	Z12	X13	Y13	Z13	X14	Y14	Z14	X15	Y15	Z15	X16	Y16	Z16	X17	Y17	Z17	X18	Y18	Z18	X19	Y19	Z19	X20	Y20	Z20	X21	Y21	Z21	X22	Y22	Z22	X23	Y23	Z23	X24	Y24	Z24	X25	Y25	Z25	X26	Y26	Z26	X27	Y27	Z27	X28	Y28	Z28	X29	Y29	Z29	X30	Y30	Z30	X31	Y31	Z31	X32	Y32	Z32	X33	Y33	Z33	X34	Y34	Z34	X35	Y35	Z35	X36	Y36	Z36	X37	Y37	Z37	X38	Y38	Z38	X39	Y39	Z39	X40	Y40	Z40	X41	Y41	Z41	X42	Y42	Z42	X43	Y43	Z43	X44	Y44	Z44	

11	0.100	-915.12860	609.06573	1622.44922	-1047.77881	609.42572	1617.77026	-917.96875	742.97467	1569.54321	-1047.14539	741.09076	1569.71790	-968.62299	746.78632	1417.13904	-973.19513	794.01709	1088.24402	-985.47766	640.58173	1335.18506	-981.56592	608.67731	1157.61157	-1028.26038	838.34644	1247.32214	-817.10974	670.49011	1369.06519	-745.68756	643.10046	1169.62256	-733.29425	621.02063	1059.47620	-734.43909	510.21539	962.88068	-799.62518	397.80667	933.78149	-763.19507	427.09561	880.78894	-776.56506	338.97742	864.39130	-1137.44812	714.17059	1369.28760	-1210.74280	825.03577	1199.38440	-1232.54285	861.39178	1084.41040	-1258.59607	896.01160	970.48712	-1254.27295	887.64209	815.86292	-1274.75916	947.17084	842.76074	-1288.71411	945.76794	759.01605	-879.73431	623.94855	913.22937	-1100.30762	620.08893	936.60260	-907.62317	778.84930	952.47369	-1076.54199	773.60699	965.41394	-841.04926	749.80597	605.54407	-867.34412	790.46777	445.53598	-883.95007	991.27716	280.99371	-928.76746	1114.26917	164.06296	-972.01758	1148.96631	188.22049	-954.22107	1049.34937	34.21229	-1164.30713	589.65198	629.24426	-1132.19336	533.42664	519.04852	-1139.45459	522.36816	254.42303	-1096.21277	509.98224	68.29171	-1051.68713	546.89288	41.08626	-1087.44446	355.77994	41.05250	-972.68060	708.98853	1664.24426												 
12	0.110	-916.27832	593.34521	1624.20789	-1048.86096	593.20746	1619.55640	-919.59546	727.26801	1571.73291	-1048.82825	725.04779	1571.92993	-970.24738	730.56067	1419.05981	-973.75275	777.88434	1090.41846	-986.57703	624.52911	1337.11792	-982.70380	592.08087	1159.81042	-1030.97632	821.66864	1249.64819	-818.44543	654.65424	1371.15808	-747.20184	629.35132	1171.30347	-735.55286	607.81757	1061.08069	-735.34747	498.82660	961.97437	-798.48846	386.50748	931.22980	-763.50275	417.06271	878.31000	-775.44794	329.19427	860.22504	-1138.81775	696.84027	1371.10938	-1213.26648	805.75488	1200.12537	-1234.63562	840.88013	1084.83508	-1260.76355	874.47656	970.61981	-1255.83020	865.68085	816.16180	-1277.09961	924.78021	842.57776	-1290.67871	922.95966	758.76935	-882.39783	606.34869	914.87292	-1101.78186	603.40369	940.51990	-906.48187	761.53253	953.46960	-1074.91077	756.98138	967.97296	-841.70349	726.57013	604.02588	-866.71973	762.42340	443.37485	-883.67352	967.18420	287.00552	-926.97778	1095.24402	175.42918	-970.15942	1127.69177	202.65440	-953.92175	1043.04407	39.32285	-1165.10388	570.05621	634.86188	-1133.08521	518.01831	521.95062	-1141.23633	512.35034	256.03094	-1096.48132	506.97253	67.96799	-1052.68225	545.42896	42.08083	-1088.22961	353.97528	37.71038	-974.19995	692.80103	1666.33203												 
13	0.120	-917.30487	577.24420	1625.81372	-1049.92847	576.96851	1621.03821	-921.04724	711.64868	1573.78357	-1050.24377	708.94019	1573.83765	-971.69299	714.67133	1420.60657	-974.51251	761.53918	1092.57764	-987.45270	608.37579	1339.00061	-983.62195	575.39697	1161.94800	-1033.47021	804.87695	1252.02673	-819.83606	639.07294	1373.22375	-748.91541	615.29321	1173.16370	-737.92944	594.96320	1062.93616	-736.21112	488.18845	961.10138	-797.47809	375.51157	928.09076	-763.87836	408.22491	875.44635	-774.06305	320.69647	855.07776	-1139.94019	679.57996	1373.16772	-1215.56628	786.04663	1200.98999	-1236.66113	820.02203	1085.37549	-1262.85645	852.50494	970.96405	-1257.32813	842.35034	816.52466	-1279.66345	901.49231	842.41937	-1292.58105	898.87549	758.35132	-884.62109	588.97864	916.72491	-1103.28992	586.98859	944.39532	-905.67023	744.17889	954.52423	-1073.59033	740.84027	970.08759	-841.83130	703.44781	602.82867	-866.10217	733.55890	441.41827	-882.88361	941.00922	292.52588	-925.46832	1073.49939	186.80038	-968.26971	1103.51489	216.68430	-953.24182	1034.22253	45.55929	-1166.58972	553.40167	638.53815	-1134.94495	504.85992	523.28424	-1140.74146	503.10699	255.38600	-1095.86963	504.74985	67.80452	-1052.60559	544.38550	42.73617	-1087.60095	352.19156	35.81565	-975.59418	676.61298	1668.24011												 
14	0.130	-918.21423	561.63849	1627.57361	-1050.84949	560.76599	1622.56873	-922.25378	695.91473	1575.65625	-1051.76929	693.10986	1575.56860	-972.97784	699.12048	1422.03943	-975.58875	745.32709	1094.64990	-988.11871	592.13068	1340.92468	-984.18243	558.84497	1164.02844	-1035.56116	788.23138	1254.23840	-821.10944	623.94446	1375.22986	-750.71112	601.22815	1175.11597	-740.19012	582.54572	1064.69470	-737.02728	478.10263	959.97211	-796.45337	365.32611	924.32129	-764.08051	400.13986	872.28424	-772.51337	313.26193	849.20349	-1140.92749	662.39929	1375.29407	-1217.99561	766.45630	1202.10303	-1238.62842	799.08429	1086.05103	-1265.05908	829.98737	971.30597	-1258.66162	817.97955	816.80286	-1282.14587	876.86768	842.02277	-1294.40845	873.81006	757.83337	-886.52374	571.58765	918.69208	-1104.54871	570.84760	948.27332	-905.41772	727.29645	955.62042	-1073.13904	724.43689	972.16205	-842.05511	679.80585	601.82501	-865.90051	703.69373	439.78543	-882.46008	912.45294	297.06995	-923.50146	1048.54199	196.70229	-966.26282	1075.59937	229.34521	-952.55280	1022.51923	52.18040	-1167.61230	540.70410	638.82483	-1136.39954	492.99985	523.02972	-1139.79041	496.39410	253.55183	-1095.21875	503.23831	67.81754	-1052.34570	543.98419	43.18829	-1086.67969	351.17398	34.78709	-976.86169	660.55676	1669.98401												 
15	0.140	-919.00800	545.96454	1629.66406	-1051.65710	544.77429	1624.47766	-923.28058	680.13947	1577.64771	-1052.78711	677.07654	1577.36047	-974.16522	683.64130	1423.71521	-976.79822	729.08325	1096.77051	-988.64551	576.03516	1342.96338	-984.57092	542.61517	1166.17139	-1037.23474	771.63531	1256.31580	-822.03943	609.19196	1377.15479	-752.46283	587.22485	1176.93689	-742.05658	570.70093	1066.12036	-737.65607	468.62207	958.46521	-795.38666	355.78824	919.88385	-763.89508	392.88388	868.69244	-770.92328	306.83487	842.74487	-1141.87463	645.14990	1377.40173	-1219.75232	745.99365	1202.98157	-1240.77820	778.13495	1086.85254	-1267.28528	807.15417	971.68372	-1259.86987	792.80383	817.26868	-1284.88281	852.07263	841.80560	-1296.21777	847.62354	757.31873	-887.13202	555.72247	920.59869	-1105.48022	554.80273	951.49237	-906.10968	710.51770	957.00037	-1073.58862	708.02985	974.40259	-842.43365	656.06146	601.45160	-866.01099	673.44781	438.83936	-882.14709	881.71954	300.16266	-921.78540	1021.42010	204.75000	-964.31360	1045.49609	239.82846	-950.68597	1006.22858	59.08865	-1167.91504	529.45691	637.49646	-1137.19104	482.28644	521.71808	-1138.25867	490.99866	252.21176	-1094.37695	502.45892	67.77051	-1051.85645	543.76160	43.46481	-1086.77307	350.58560	34.05706	-977.91943	644.70020	1671.90503												 
16	0.150	-919.53699	530.28253	1632.00403	-1052.19714	528.72229	1626.72156	-924.18640	664.42877	1580.00061	-1053.24109	660.60193	1579.49475	-975.34100	668.02502	1425.87561	-978.07935	712.85040	1098.96924	-988.98291	560.13074	1345.29187	-984.83350	526.48248	1168.51514	-1038.90125	755.25146	1258.45728	-822.60095	594.79999	1379.08459	-753.93915	573.62012	1178.47766	-743.50873	559.24945	1067.31067	-738.06848	459.80316	956.72693	-794.15851	347.01346	914.80896	-763.59167	386.55984	864.72418	-769.07556	301.27911	835.90021	-1142.84729	627.87274	1379.65942	-1221.86646	726.31604	1204.17676	-1242.90894	757.32556	1087.74182	-1269.61548	784.01569	972.07880	-1261.17383	767.23853	817.93634	-1287.32617	826.23047	841.43018	-1297.99316	820.47931	756.90698	-887.29089	539.92487	922.83801	-1106.11572	538.67181	953.88501	-907.42029	694.67474	958.71722	-1074.84900	691.40479	976.56024	-843.25745	632.03656	601.60846	-866.26404	643.55298	438.90851	-881.12811	850.24921	301.69397	-921.35004	994.47278	212.19096	-964.15741	1017.97705	247.41739	-947.84052	982.20477	65.18240	-1168.39856	517.56641	636.07751	-1136.80200	471.52600	520.06622	-1136.77344	486.59744	251.73978	-1093.59363	501.78256	67.95391	-1051.43726	543.57349	43.76495	-1086.76733	350.29538	33.72591	-978.81744	628.92932	1674.21118												 
